<svg width="200" height="220" viewBox="0 0 200 220" fill="none" xmlns="http://www.w3.org/2000/svg">
  <!-- Shield shape -->
  <path d="M100 10C100 10 40 30 40 70C40 130 100 210 100 210C100 210 160 130 160 70C160 30 100 10 100 10Z" fill="url(#gradient1)"/>

  <!-- Gradient definition -->
  <defs>
    <linearGradient id="gradient1" x1="100" y1="10" x2="100" y2="210" gradientUnits="userSpaceOnUse">
      <stop offset="0%" stop-color="#2563EB"/>
      <stop offset="100%" stop-color="#1E3A8A"/>
    </linearGradient>
    <linearGradient id="gradient2" x1="60" y1="70" x2="140" y2="140" gradientUnits="userSpaceOnUse">
      <stop offset="0%" stop-color="#F97316"/>
      <stop offset="100%" stop-color="#EA580C"/>
    </linearGradient>
  </defs>

  <!-- Inner shield accent -->
  <path d="M100 35C100 35 55 50 55 80C55 125 100 180 100 180C100 180 145 125 145 80C145 50 100 35 100 35Z" fill="url(#gradient2)"/>

  <!-- Letters CH -->
  <text x="100" y="110" font-family="Arial, sans-serif" font-size="48" font-weight="bold" fill="white" text-anchor="middle" dominant-baseline="middle">CH</text>

  <!-- Decorative line -->
  <line x1="70" y1="130" x2="130" y2="130" stroke="white" stroke-width="3" opacity="0.5"/>
</svg>
